<mxfile host="Electron" modified="2024-04-01T13:36:46.184Z" agent="Mozilla/5.0 (Windows NT 10.0; Win64; x64) AppleWebKit/537.36 (KHTML, like Gecko) draw.io/22.0.2 Chrome/114.0.5735.289 Electron/25.8.4 Safari/537.36" etag="zwTi7HUTH7gFJc46QC5w" version="22.0.2" type="device">
  <diagram name="第 1 页" id="Swf7uyS4yp4CafleX0ra">
    <mxGraphModel dx="2375" dy="902" grid="1" gridSize="10" guides="1" tooltips="1" connect="1" arrows="1" fold="1" page="1" pageScale="1" pageWidth="827" pageHeight="1169" math="0" shadow="0">
      <root>
        <mxCell id="0" />
        <mxCell id="1" parent="0" />
        <mxCell id="ae14Qy0RO_niLCeJF8Mt-3" value="" style="rounded=1;whiteSpace=wrap;html=1;fillColor=none;strokeColor=#b85450;strokeWidth=5;dashed=1;shadow=0;" parent="1" vertex="1">
          <mxGeometry x="95" y="160" width="615" height="110" as="geometry" />
        </mxCell>
        <mxCell id="XQVcX5hq3e3qukLkaY1j-9" value="" style="rounded=1;whiteSpace=wrap;html=1;fillColor=none;dashed=1;dashPattern=8 8;shadow=0;" parent="1" vertex="1">
          <mxGeometry x="110" y="285" width="590" height="90" as="geometry" />
        </mxCell>
        <mxCell id="XQVcX5hq3e3qukLkaY1j-11" value="" style="rounded=1;whiteSpace=wrap;html=1;fillColor=none;strokeColor=#b85450;strokeWidth=5;dashed=1;shadow=0;" parent="1" vertex="1">
          <mxGeometry x="420" y="70" width="80" height="50" as="geometry" />
        </mxCell>
        <mxCell id="XQVcX5hq3e3qukLkaY1j-10" value="" style="rounded=1;whiteSpace=wrap;html=1;fillColor=none;dashed=1;dashPattern=8 8;shadow=0;" parent="1" vertex="1">
          <mxGeometry x="110" y="403" width="590" height="90" as="geometry" />
        </mxCell>
        <mxCell id="XQVcX5hq3e3qukLkaY1j-1" value="&lt;font size=&quot;1&quot; style=&quot;&quot;&gt;&lt;b style=&quot;font-size: 25px;&quot;&gt;A1&lt;/b&gt;&lt;/font&gt;" style="rounded=1;whiteSpace=wrap;html=1;fillColor=#fff2cc;strokeColor=#d6b656;shadow=0;" parent="1" vertex="1">
          <mxGeometry x="130" y="300" width="120" height="60" as="geometry" />
        </mxCell>
        <mxCell id="XQVcX5hq3e3qukLkaY1j-2" value="&lt;b style=&quot;border-color: var(--border-color); font-size: 25px;&quot;&gt;B1&lt;/b&gt;" style="rounded=1;whiteSpace=wrap;html=1;fillColor=#dae8fc;strokeColor=#6c8ebf;shadow=0;" parent="1" vertex="1">
          <mxGeometry x="130" y="418" width="120" height="60" as="geometry" />
        </mxCell>
        <mxCell id="XQVcX5hq3e3qukLkaY1j-3" value="&lt;b style=&quot;border-color: var(--border-color); font-size: 25px;&quot;&gt;A2&lt;/b&gt;" style="rounded=1;whiteSpace=wrap;html=1;fillColor=#fff2cc;strokeColor=#d6b656;shadow=0;" parent="1" vertex="1">
          <mxGeometry x="270" y="300" width="120" height="60" as="geometry" />
        </mxCell>
        <mxCell id="XQVcX5hq3e3qukLkaY1j-4" value="&lt;b style=&quot;border-color: var(--border-color); font-size: 25px;&quot;&gt;A3&lt;/b&gt;" style="rounded=1;whiteSpace=wrap;html=1;fillColor=#fff2cc;strokeColor=#d6b656;shadow=0;" parent="1" vertex="1">
          <mxGeometry x="413.5" y="300" width="120" height="60" as="geometry" />
        </mxCell>
        <mxCell id="XQVcX5hq3e3qukLkaY1j-5" value="&lt;b style=&quot;border-color: var(--border-color); font-size: 25px;&quot;&gt;A4&lt;/b&gt;" style="rounded=1;whiteSpace=wrap;html=1;fillColor=#fff2cc;strokeColor=#d6b656;shadow=0;" parent="1" vertex="1">
          <mxGeometry x="560" y="300" width="120" height="60" as="geometry" />
        </mxCell>
        <mxCell id="XQVcX5hq3e3qukLkaY1j-6" value="&lt;b style=&quot;border-color: var(--border-color); font-size: 25px;&quot;&gt;B2&lt;/b&gt;" style="rounded=1;whiteSpace=wrap;html=1;fillColor=#dae8fc;strokeColor=#6c8ebf;shadow=0;" parent="1" vertex="1">
          <mxGeometry x="270" y="418" width="120" height="60" as="geometry" />
        </mxCell>
        <mxCell id="XQVcX5hq3e3qukLkaY1j-7" value="&lt;b style=&quot;border-color: var(--border-color); font-size: 25px;&quot;&gt;B3&lt;/b&gt;" style="rounded=1;whiteSpace=wrap;html=1;fillColor=#dae8fc;strokeColor=#6c8ebf;shadow=0;" parent="1" vertex="1">
          <mxGeometry x="414" y="418" width="120" height="60" as="geometry" />
        </mxCell>
        <mxCell id="XQVcX5hq3e3qukLkaY1j-8" value="&lt;b style=&quot;border-color: var(--border-color); font-size: 25px;&quot;&gt;B4&lt;/b&gt;" style="rounded=1;whiteSpace=wrap;html=1;fillColor=#dae8fc;strokeColor=#6c8ebf;shadow=0;" parent="1" vertex="1">
          <mxGeometry x="560" y="418" width="120" height="60" as="geometry" />
        </mxCell>
        <mxCell id="XQVcX5hq3e3qukLkaY1j-12" value="&lt;font size=&quot;1&quot; style=&quot;&quot;&gt;&lt;b style=&quot;font-size: 25px;&quot;&gt;A1&lt;/b&gt;&lt;/font&gt;" style="rounded=1;whiteSpace=wrap;html=1;fillColor=#fff2cc;strokeColor=#d6b656;shadow=0;" parent="1" vertex="1">
          <mxGeometry x="110" y="70" width="80" height="50" as="geometry" />
        </mxCell>
        <mxCell id="XQVcX5hq3e3qukLkaY1j-13" value="&lt;b&gt;&lt;font style=&quot;font-size: 25px;&quot;&gt;Operator&lt;/font&gt;&lt;/b&gt;" style="text;strokeColor=none;align=center;fillColor=none;html=1;verticalAlign=middle;whiteSpace=wrap;rounded=0;shadow=0;" parent="1" vertex="1">
          <mxGeometry x="240" y="80" width="60" height="30" as="geometry" />
        </mxCell>
        <mxCell id="XQVcX5hq3e3qukLkaY1j-14" value="" style="rounded=1;whiteSpace=wrap;html=1;fillColor=none;strokeColor=#b85450;strokeWidth=5;dashed=1;shadow=0;" parent="1" vertex="1">
          <mxGeometry x="95" y="270" width="305" height="120" as="geometry" />
        </mxCell>
        <mxCell id="XQVcX5hq3e3qukLkaY1j-15" value="&lt;b&gt;&lt;font style=&quot;font-size: 25px;&quot;&gt;Concurrent Inference Segment&lt;/font&gt;&lt;/b&gt;" style="text;strokeColor=none;align=center;fillColor=none;html=1;verticalAlign=middle;whiteSpace=wrap;rounded=0;shadow=0;" parent="1" vertex="1">
          <mxGeometry x="520" y="80" width="250" height="30" as="geometry" />
        </mxCell>
        <mxCell id="XQVcX5hq3e3qukLkaY1j-19" value="&lt;b&gt;&lt;font style=&quot;font-size: 30px;&quot;&gt;Model B&lt;/font&gt;&lt;/b&gt;" style="text;strokeColor=none;align=center;fillColor=none;html=1;verticalAlign=middle;whiteSpace=wrap;rounded=0;shadow=0;" parent="1" vertex="1">
          <mxGeometry x="-50" y="433" width="120" height="30" as="geometry" />
        </mxCell>
        <mxCell id="XQVcX5hq3e3qukLkaY1j-20" value="&lt;b&gt;&lt;font style=&quot;font-size: 30px;&quot;&gt;Model A&lt;/font&gt;&lt;/b&gt;" style="text;strokeColor=none;align=center;fillColor=none;html=1;verticalAlign=middle;whiteSpace=wrap;rounded=0;shadow=0;" parent="1" vertex="1">
          <mxGeometry x="-50" y="310" width="120" height="30" as="geometry" />
        </mxCell>
        <mxCell id="XQVcX5hq3e3qukLkaY1j-23" value="&lt;b style=&quot;font-size: 35px;&quot;&gt;&lt;font style=&quot;font-size: 35px;&quot;&gt;Round &lt;i&gt;x-1&lt;/i&gt;&lt;/font&gt;&lt;/b&gt;" style="text;strokeColor=none;align=center;fillColor=none;html=1;verticalAlign=middle;whiteSpace=wrap;rounded=0;shadow=0;" parent="1" vertex="1">
          <mxGeometry x="-295" y="433" width="180" height="30" as="geometry" />
        </mxCell>
        <mxCell id="XQVcX5hq3e3qukLkaY1j-37" value="" style="endArrow=none;html=1;strokeWidth=2;rounded=0;shadow=0;" parent="1" edge="1">
          <mxGeometry width="50" height="50" relative="1" as="geometry">
            <mxPoint x="-60" y="633" as="sourcePoint" />
            <mxPoint x="760" y="633" as="targetPoint" />
          </mxGeometry>
        </mxCell>
        <mxCell id="XQVcX5hq3e3qukLkaY1j-42" value="" style="group" parent="1" vertex="1" connectable="0">
          <mxGeometry x="-50" y="650" width="800" height="250" as="geometry" />
        </mxCell>
        <mxCell id="XQVcX5hq3e3qukLkaY1j-24" value="" style="rounded=1;whiteSpace=wrap;html=1;fillColor=none;dashed=1;dashPattern=8 8;shadow=0;" parent="XQVcX5hq3e3qukLkaY1j-42" vertex="1">
          <mxGeometry x="160" y="15" width="590" height="90" as="geometry" />
        </mxCell>
        <mxCell id="XQVcX5hq3e3qukLkaY1j-25" value="" style="rounded=1;whiteSpace=wrap;html=1;fillColor=none;dashed=1;dashPattern=8 8;shadow=0;" parent="XQVcX5hq3e3qukLkaY1j-42" vertex="1">
          <mxGeometry x="160" y="133" width="590" height="90" as="geometry" />
        </mxCell>
        <mxCell id="XQVcX5hq3e3qukLkaY1j-26" value="&lt;font size=&quot;1&quot; style=&quot;&quot;&gt;&lt;b style=&quot;font-size: 25px;&quot;&gt;A1&lt;/b&gt;&lt;/font&gt;" style="rounded=1;whiteSpace=wrap;html=1;fillColor=#fff2cc;strokeColor=#d6b656;shadow=0;" parent="XQVcX5hq3e3qukLkaY1j-42" vertex="1">
          <mxGeometry x="180" y="30" width="120" height="60" as="geometry" />
        </mxCell>
        <mxCell id="XQVcX5hq3e3qukLkaY1j-27" value="&lt;b style=&quot;border-color: var(--border-color); font-size: 25px;&quot;&gt;B1&lt;/b&gt;" style="rounded=1;whiteSpace=wrap;html=1;fillColor=#dae8fc;strokeColor=#6c8ebf;shadow=0;" parent="XQVcX5hq3e3qukLkaY1j-42" vertex="1">
          <mxGeometry x="180" y="148" width="120" height="60" as="geometry" />
        </mxCell>
        <mxCell id="XQVcX5hq3e3qukLkaY1j-28" value="&lt;b style=&quot;border-color: var(--border-color); font-size: 25px;&quot;&gt;A2&lt;/b&gt;" style="rounded=1;whiteSpace=wrap;html=1;fillColor=#fff2cc;strokeColor=#d6b656;shadow=0;" parent="XQVcX5hq3e3qukLkaY1j-42" vertex="1">
          <mxGeometry x="320" y="30" width="120" height="60" as="geometry" />
        </mxCell>
        <mxCell id="XQVcX5hq3e3qukLkaY1j-29" value="&lt;b style=&quot;border-color: var(--border-color); font-size: 25px;&quot;&gt;A3&lt;/b&gt;" style="rounded=1;whiteSpace=wrap;html=1;fillColor=#fff2cc;strokeColor=#d6b656;shadow=0;" parent="XQVcX5hq3e3qukLkaY1j-42" vertex="1">
          <mxGeometry x="463.5" y="30" width="120" height="60" as="geometry" />
        </mxCell>
        <mxCell id="XQVcX5hq3e3qukLkaY1j-30" value="&lt;b style=&quot;border-color: var(--border-color); font-size: 25px;&quot;&gt;A4&lt;/b&gt;" style="rounded=1;whiteSpace=wrap;html=1;fillColor=#fff2cc;strokeColor=#d6b656;shadow=0;" parent="XQVcX5hq3e3qukLkaY1j-42" vertex="1">
          <mxGeometry x="610" y="30" width="120" height="60" as="geometry" />
        </mxCell>
        <mxCell id="XQVcX5hq3e3qukLkaY1j-31" value="&lt;b style=&quot;border-color: var(--border-color); font-size: 25px;&quot;&gt;B2&lt;/b&gt;" style="rounded=1;whiteSpace=wrap;html=1;fillColor=#dae8fc;strokeColor=#6c8ebf;shadow=0;" parent="XQVcX5hq3e3qukLkaY1j-42" vertex="1">
          <mxGeometry x="320" y="148" width="120" height="60" as="geometry" />
        </mxCell>
        <mxCell id="XQVcX5hq3e3qukLkaY1j-32" value="&lt;b style=&quot;border-color: var(--border-color); font-size: 25px;&quot;&gt;B3&lt;/b&gt;" style="rounded=1;whiteSpace=wrap;html=1;fillColor=#dae8fc;strokeColor=#6c8ebf;shadow=0;" parent="XQVcX5hq3e3qukLkaY1j-42" vertex="1">
          <mxGeometry x="464" y="148" width="120" height="60" as="geometry" />
        </mxCell>
        <mxCell id="XQVcX5hq3e3qukLkaY1j-33" value="&lt;b style=&quot;border-color: var(--border-color); font-size: 25px;&quot;&gt;B4&lt;/b&gt;" style="rounded=1;whiteSpace=wrap;html=1;fillColor=#dae8fc;strokeColor=#6c8ebf;shadow=0;" parent="XQVcX5hq3e3qukLkaY1j-42" vertex="1">
          <mxGeometry x="610" y="148" width="120" height="60" as="geometry" />
        </mxCell>
        <mxCell id="XQVcX5hq3e3qukLkaY1j-34" value="" style="rounded=1;whiteSpace=wrap;html=1;fillColor=none;strokeColor=#b85450;strokeWidth=5;dashed=1;shadow=0;" parent="XQVcX5hq3e3qukLkaY1j-42" vertex="1">
          <mxGeometry x="450" width="315" height="120" as="geometry" />
        </mxCell>
        <mxCell id="XQVcX5hq3e3qukLkaY1j-35" value="&lt;b&gt;&lt;font style=&quot;font-size: 30px;&quot;&gt;Model B&lt;/font&gt;&lt;/b&gt;" style="text;strokeColor=none;align=center;fillColor=none;html=1;verticalAlign=middle;whiteSpace=wrap;rounded=0;shadow=0;" parent="XQVcX5hq3e3qukLkaY1j-42" vertex="1">
          <mxGeometry y="163" width="120" height="30" as="geometry" />
        </mxCell>
        <mxCell id="XQVcX5hq3e3qukLkaY1j-36" value="&lt;b&gt;&lt;font style=&quot;font-size: 30px;&quot;&gt;Model A&lt;/font&gt;&lt;/b&gt;" style="text;strokeColor=none;align=center;fillColor=none;html=1;verticalAlign=middle;whiteSpace=wrap;rounded=0;shadow=0;" parent="XQVcX5hq3e3qukLkaY1j-42" vertex="1">
          <mxGeometry y="40" width="120" height="30" as="geometry" />
        </mxCell>
        <mxCell id="XQVcX5hq3e3qukLkaY1j-40" value="" style="rounded=1;whiteSpace=wrap;html=1;fillColor=none;strokeColor=#b85450;strokeWidth=5;dashed=1;shadow=0;" parent="XQVcX5hq3e3qukLkaY1j-42" vertex="1">
          <mxGeometry x="145" y="120" width="455" height="120" as="geometry" />
        </mxCell>
        <mxCell id="XQVcX5hq3e3qukLkaY1j-41" value="" style="rounded=1;whiteSpace=wrap;html=1;strokeColor=none;fillColor=#FFFFFF;" parent="XQVcX5hq3e3qukLkaY1j-42" vertex="1">
          <mxGeometry x="450" y="110" width="150" height="17" as="geometry" />
        </mxCell>
        <mxCell id="ae14Qy0RO_niLCeJF8Mt-28" value="" style="rounded=1;whiteSpace=wrap;html=1;opacity=80;" parent="XQVcX5hq3e3qukLkaY1j-42" vertex="1">
          <mxGeometry x="170" y="30" width="270" height="60" as="geometry" />
        </mxCell>
        <mxCell id="XQVcX5hq3e3qukLkaY1j-87" value="" style="endArrow=none;html=1;strokeWidth=2;rounded=0;shadow=0;" parent="1" edge="1">
          <mxGeometry width="50" height="50" relative="1" as="geometry">
            <mxPoint x="-60" y="1010" as="sourcePoint" />
            <mxPoint x="760" y="1010" as="targetPoint" />
          </mxGeometry>
        </mxCell>
        <mxCell id="XQVcX5hq3e3qukLkaY1j-90" value="" style="group;rotation=90;" parent="1" vertex="1" connectable="0">
          <mxGeometry x="-50" y="1010" width="800" height="255" as="geometry" />
        </mxCell>
        <mxCell id="XQVcX5hq3e3qukLkaY1j-91" value="" style="rounded=1;whiteSpace=wrap;html=1;fillColor=none;dashed=1;dashPattern=8 8;shadow=0;" parent="XQVcX5hq3e3qukLkaY1j-90" vertex="1">
          <mxGeometry x="160" y="15" width="590" height="90" as="geometry" />
        </mxCell>
        <mxCell id="XQVcX5hq3e3qukLkaY1j-92" value="" style="rounded=1;whiteSpace=wrap;html=1;fillColor=none;dashed=1;dashPattern=8 8;shadow=0;" parent="XQVcX5hq3e3qukLkaY1j-90" vertex="1">
          <mxGeometry x="160" y="133" width="590" height="90" as="geometry" />
        </mxCell>
        <mxCell id="XQVcX5hq3e3qukLkaY1j-93" value="&lt;font size=&quot;1&quot; style=&quot;&quot;&gt;&lt;b style=&quot;font-size: 25px;&quot;&gt;A1&lt;/b&gt;&lt;/font&gt;" style="rounded=1;whiteSpace=wrap;html=1;fillColor=#fff2cc;strokeColor=#d6b656;shadow=0;" parent="XQVcX5hq3e3qukLkaY1j-90" vertex="1">
          <mxGeometry x="180" y="30" width="120" height="60" as="geometry" />
        </mxCell>
        <mxCell id="XQVcX5hq3e3qukLkaY1j-94" value="&lt;b style=&quot;border-color: var(--border-color); font-size: 25px;&quot;&gt;B1&lt;/b&gt;" style="rounded=1;whiteSpace=wrap;html=1;fillColor=#dae8fc;strokeColor=#6c8ebf;shadow=0;" parent="XQVcX5hq3e3qukLkaY1j-90" vertex="1">
          <mxGeometry x="180" y="148" width="120" height="60" as="geometry" />
        </mxCell>
        <mxCell id="XQVcX5hq3e3qukLkaY1j-95" value="&lt;b style=&quot;border-color: var(--border-color); font-size: 25px;&quot;&gt;A2&lt;/b&gt;" style="rounded=1;whiteSpace=wrap;html=1;fillColor=#fff2cc;strokeColor=#d6b656;shadow=0;" parent="XQVcX5hq3e3qukLkaY1j-90" vertex="1">
          <mxGeometry x="320" y="30" width="120" height="60" as="geometry" />
        </mxCell>
        <mxCell id="XQVcX5hq3e3qukLkaY1j-96" value="&lt;b style=&quot;border-color: var(--border-color); font-size: 25px;&quot;&gt;A3&lt;/b&gt;" style="rounded=1;whiteSpace=wrap;html=1;fillColor=#fff2cc;strokeColor=#d6b656;shadow=0;" parent="XQVcX5hq3e3qukLkaY1j-90" vertex="1">
          <mxGeometry x="463.5" y="30" width="120" height="60" as="geometry" />
        </mxCell>
        <mxCell id="XQVcX5hq3e3qukLkaY1j-97" value="&lt;b style=&quot;border-color: var(--border-color); font-size: 25px;&quot;&gt;A4&lt;/b&gt;" style="rounded=1;whiteSpace=wrap;html=1;fillColor=#fff2cc;strokeColor=#d6b656;shadow=0;" parent="XQVcX5hq3e3qukLkaY1j-90" vertex="1">
          <mxGeometry x="610" y="30" width="120" height="60" as="geometry" />
        </mxCell>
        <mxCell id="XQVcX5hq3e3qukLkaY1j-98" value="&lt;b style=&quot;border-color: var(--border-color); font-size: 25px;&quot;&gt;B2&lt;/b&gt;" style="rounded=1;whiteSpace=wrap;html=1;fillColor=#dae8fc;strokeColor=#6c8ebf;shadow=0;" parent="XQVcX5hq3e3qukLkaY1j-90" vertex="1">
          <mxGeometry x="320" y="148" width="120" height="60" as="geometry" />
        </mxCell>
        <mxCell id="XQVcX5hq3e3qukLkaY1j-100" value="&lt;b style=&quot;border-color: var(--border-color); font-size: 25px;&quot;&gt;B4&lt;/b&gt;" style="rounded=1;whiteSpace=wrap;html=1;fillColor=#dae8fc;strokeColor=#6c8ebf;shadow=0;" parent="XQVcX5hq3e3qukLkaY1j-90" vertex="1">
          <mxGeometry x="610" y="148" width="120" height="60" as="geometry" />
        </mxCell>
        <mxCell id="XQVcX5hq3e3qukLkaY1j-101" value="" style="rounded=1;whiteSpace=wrap;html=1;fillColor=none;strokeColor=#b85450;strokeWidth=5;dashed=1;shadow=0;" parent="XQVcX5hq3e3qukLkaY1j-90" vertex="1">
          <mxGeometry x="150" y="240" width="620" height="120" as="geometry" />
        </mxCell>
        <mxCell id="XQVcX5hq3e3qukLkaY1j-102" value="&lt;b&gt;&lt;font style=&quot;font-size: 30px;&quot;&gt;Model B&lt;/font&gt;&lt;/b&gt;" style="text;strokeColor=none;align=center;fillColor=none;html=1;verticalAlign=middle;whiteSpace=wrap;rounded=0;shadow=0;" parent="XQVcX5hq3e3qukLkaY1j-90" vertex="1">
          <mxGeometry y="163" width="120" height="30" as="geometry" />
        </mxCell>
        <mxCell id="XQVcX5hq3e3qukLkaY1j-103" value="&lt;b&gt;&lt;font style=&quot;font-size: 30px;&quot;&gt;Model A&lt;/font&gt;&lt;/b&gt;" style="text;strokeColor=none;align=center;fillColor=none;html=1;verticalAlign=middle;whiteSpace=wrap;rounded=0;shadow=0;" parent="XQVcX5hq3e3qukLkaY1j-90" vertex="1">
          <mxGeometry y="40" width="120" height="30" as="geometry" />
        </mxCell>
        <mxCell id="XQVcX5hq3e3qukLkaY1j-104" value="" style="rounded=1;whiteSpace=wrap;html=1;fillColor=none;strokeColor=#b85450;strokeWidth=5;dashed=1;shadow=0;" parent="XQVcX5hq3e3qukLkaY1j-90" vertex="1">
          <mxGeometry x="600" y="120" width="170" height="120" as="geometry" />
        </mxCell>
        <mxCell id="XQVcX5hq3e3qukLkaY1j-99" value="&lt;b style=&quot;border-color: var(--border-color); font-size: 25px;&quot;&gt;B3&lt;/b&gt;" style="rounded=1;whiteSpace=wrap;html=1;fillColor=#dae8fc;strokeColor=#6c8ebf;shadow=0;" parent="XQVcX5hq3e3qukLkaY1j-90" vertex="1">
          <mxGeometry x="463.5" y="148" width="120" height="60" as="geometry" />
        </mxCell>
        <mxCell id="XQVcX5hq3e3qukLkaY1j-105" value="" style="rounded=1;whiteSpace=wrap;html=1;strokeColor=none;fillColor=#FFFFFF;" parent="XQVcX5hq3e3qukLkaY1j-90" vertex="1">
          <mxGeometry x="600" y="230" width="180" height="17" as="geometry" />
        </mxCell>
        <mxCell id="ae14Qy0RO_niLCeJF8Mt-29" value="" style="rounded=1;whiteSpace=wrap;html=1;opacity=80;" parent="XQVcX5hq3e3qukLkaY1j-90" vertex="1">
          <mxGeometry x="180" y="30" width="550" height="60" as="geometry" />
        </mxCell>
        <mxCell id="ae14Qy0RO_niLCeJF8Mt-30" value="" style="rounded=1;whiteSpace=wrap;html=1;opacity=80;" parent="XQVcX5hq3e3qukLkaY1j-90" vertex="1">
          <mxGeometry x="180" y="148" width="410" height="60" as="geometry" />
        </mxCell>
        <mxCell id="ae14Qy0RO_niLCeJF8Mt-4" value="" style="rounded=1;whiteSpace=wrap;html=1;fillColor=default;strokeColor=none;" parent="1" vertex="1">
          <mxGeometry x="100" y="250" width="300" height="30" as="geometry" />
        </mxCell>
        <mxCell id="ae14Qy0RO_niLCeJF8Mt-5" value="&lt;span&gt;&lt;font style=&quot;font-size: 25px;&quot;&gt;Blocking&lt;/font&gt;&lt;/span&gt;" style="text;strokeColor=none;align=center;fillColor=none;html=1;verticalAlign=middle;whiteSpace=wrap;rounded=0;shadow=0;fontStyle=1" parent="1" vertex="1">
          <mxGeometry x="-210" y="620" width="170" height="30" as="geometry" />
        </mxCell>
        <mxCell id="ae14Qy0RO_niLCeJF8Mt-6" value="&lt;b style=&quot;font-size: 35px;&quot;&gt;&lt;font style=&quot;font-size: 35px;&quot;&gt;Round &lt;i&gt;x&lt;/i&gt;&lt;/font&gt;&lt;/b&gt;" style="text;strokeColor=none;align=center;fillColor=none;html=1;verticalAlign=middle;whiteSpace=wrap;rounded=0;shadow=0;" parent="1" vertex="1">
          <mxGeometry x="-310" y="810" width="180" height="30" as="geometry" />
        </mxCell>
        <mxCell id="ae14Qy0RO_niLCeJF8Mt-7" value="&lt;b style=&quot;font-size: 35px;&quot;&gt;&lt;font style=&quot;font-size: 35px;&quot;&gt;Round &lt;i&gt;x+1&lt;/i&gt;&lt;/font&gt;&lt;/b&gt;" style="text;strokeColor=none;align=center;fillColor=none;html=1;verticalAlign=middle;whiteSpace=wrap;rounded=0;shadow=0;" parent="1" vertex="1">
          <mxGeometry x="-310" y="1175" width="210" height="30" as="geometry" />
        </mxCell>
        <mxCell id="ae14Qy0RO_niLCeJF8Mt-8" value="&lt;b&gt;&lt;font style=&quot;font-size: 25px;&quot;&gt;Blocking&lt;/font&gt;&lt;/b&gt;" style="text;strokeColor=none;align=center;fillColor=none;html=1;verticalAlign=middle;whiteSpace=wrap;rounded=0;shadow=0;" parent="1" vertex="1">
          <mxGeometry x="-210" y="990" width="170" height="30" as="geometry" />
        </mxCell>
        <mxCell id="ae14Qy0RO_niLCeJF8Mt-10" value="" style="rounded=1;whiteSpace=wrap;html=1;fillColor=none;dashed=1;dashPattern=8 8;shadow=0;" parent="1" vertex="1">
          <mxGeometry x="110" y="520" width="590" height="90" as="geometry" />
        </mxCell>
        <mxCell id="ae14Qy0RO_niLCeJF8Mt-11" value="&lt;b style=&quot;border-color: var(--border-color); font-size: 25px;&quot;&gt;C1&lt;/b&gt;" style="rounded=1;whiteSpace=wrap;html=1;fillColor=#f8cecc;strokeColor=#b85450;shadow=0;" parent="1" vertex="1">
          <mxGeometry x="130" y="535" width="120" height="60" as="geometry" />
        </mxCell>
        <mxCell id="ae14Qy0RO_niLCeJF8Mt-12" value="&lt;b style=&quot;border-color: var(--border-color); font-size: 25px;&quot;&gt;C2&lt;/b&gt;" style="rounded=1;whiteSpace=wrap;html=1;fillColor=#f8cecc;strokeColor=#b85450;shadow=0;" parent="1" vertex="1">
          <mxGeometry x="270" y="535" width="120" height="60" as="geometry" />
        </mxCell>
        <mxCell id="ae14Qy0RO_niLCeJF8Mt-13" value="&lt;b style=&quot;border-color: var(--border-color); font-size: 25px;&quot;&gt;C3&lt;/b&gt;" style="rounded=1;whiteSpace=wrap;html=1;fillColor=#f8cecc;strokeColor=#b85450;shadow=0;" parent="1" vertex="1">
          <mxGeometry x="414" y="535" width="120" height="60" as="geometry" />
        </mxCell>
        <mxCell id="ae14Qy0RO_niLCeJF8Mt-14" value="&lt;b style=&quot;border-color: var(--border-color); font-size: 25px;&quot;&gt;C4&lt;/b&gt;" style="rounded=1;whiteSpace=wrap;html=1;fillColor=#f8cecc;strokeColor=#b85450;shadow=0;" parent="1" vertex="1">
          <mxGeometry x="560" y="535" width="120" height="60" as="geometry" />
        </mxCell>
        <mxCell id="ae14Qy0RO_niLCeJF8Mt-15" value="&lt;b&gt;&lt;font style=&quot;font-size: 30px;&quot;&gt;Model C&lt;/font&gt;&lt;/b&gt;" style="text;strokeColor=none;align=center;fillColor=none;html=1;verticalAlign=middle;whiteSpace=wrap;rounded=0;shadow=0;" parent="1" vertex="1">
          <mxGeometry x="-50" y="550" width="120" height="30" as="geometry" />
        </mxCell>
        <mxCell id="ae14Qy0RO_niLCeJF8Mt-16" value="" style="rounded=1;whiteSpace=wrap;html=1;fillColor=none;dashed=1;dashPattern=8 8;shadow=0;" parent="1" vertex="1">
          <mxGeometry x="110" y="900" width="590" height="90" as="geometry" />
        </mxCell>
        <mxCell id="ae14Qy0RO_niLCeJF8Mt-17" value="&lt;b style=&quot;border-color: var(--border-color); font-size: 25px;&quot;&gt;C1&lt;/b&gt;" style="rounded=1;whiteSpace=wrap;html=1;fillColor=#f8cecc;strokeColor=#b85450;shadow=0;" parent="1" vertex="1">
          <mxGeometry x="130" y="915" width="120" height="60" as="geometry" />
        </mxCell>
        <mxCell id="ae14Qy0RO_niLCeJF8Mt-18" value="&lt;b style=&quot;border-color: var(--border-color); font-size: 25px;&quot;&gt;C2&lt;/b&gt;" style="rounded=1;whiteSpace=wrap;html=1;fillColor=#f8cecc;strokeColor=#b85450;shadow=0;" parent="1" vertex="1">
          <mxGeometry x="270" y="915" width="120" height="60" as="geometry" />
        </mxCell>
        <mxCell id="ae14Qy0RO_niLCeJF8Mt-19" value="&lt;b style=&quot;border-color: var(--border-color); font-size: 25px;&quot;&gt;C3&lt;/b&gt;" style="rounded=1;whiteSpace=wrap;html=1;fillColor=#f8cecc;strokeColor=#b85450;shadow=0;" parent="1" vertex="1">
          <mxGeometry x="414" y="915" width="120" height="60" as="geometry" />
        </mxCell>
        <mxCell id="ae14Qy0RO_niLCeJF8Mt-20" value="&lt;b style=&quot;border-color: var(--border-color); font-size: 25px;&quot;&gt;C4&lt;/b&gt;" style="rounded=1;whiteSpace=wrap;html=1;fillColor=#f8cecc;strokeColor=#b85450;shadow=0;" parent="1" vertex="1">
          <mxGeometry x="560" y="915" width="120" height="60" as="geometry" />
        </mxCell>
        <mxCell id="ae14Qy0RO_niLCeJF8Mt-21" value="&lt;b&gt;&lt;font style=&quot;font-size: 30px;&quot;&gt;Model C&lt;/font&gt;&lt;/b&gt;" style="text;strokeColor=none;align=center;fillColor=none;html=1;verticalAlign=middle;whiteSpace=wrap;rounded=0;shadow=0;" parent="1" vertex="1">
          <mxGeometry x="-50" y="930" width="120" height="30" as="geometry" />
        </mxCell>
        <mxCell id="ae14Qy0RO_niLCeJF8Mt-23" value="&lt;b style=&quot;border-color: var(--border-color); font-size: 25px;&quot;&gt;C1&lt;/b&gt;" style="rounded=1;whiteSpace=wrap;html=1;fillColor=#f8cecc;strokeColor=#b85450;shadow=0;" parent="1" vertex="1">
          <mxGeometry x="130" y="1280" width="120" height="60" as="geometry" />
        </mxCell>
        <mxCell id="ae14Qy0RO_niLCeJF8Mt-24" value="&lt;b style=&quot;border-color: var(--border-color); font-size: 25px;&quot;&gt;C2&lt;/b&gt;" style="rounded=1;whiteSpace=wrap;html=1;fillColor=#f8cecc;strokeColor=#b85450;shadow=0;" parent="1" vertex="1">
          <mxGeometry x="270" y="1280" width="120" height="60" as="geometry" />
        </mxCell>
        <mxCell id="ae14Qy0RO_niLCeJF8Mt-25" value="&lt;b style=&quot;border-color: var(--border-color); font-size: 25px;&quot;&gt;C3&lt;/b&gt;" style="rounded=1;whiteSpace=wrap;html=1;fillColor=#f8cecc;strokeColor=#b85450;shadow=0;" parent="1" vertex="1">
          <mxGeometry x="414" y="1280" width="120" height="60" as="geometry" />
        </mxCell>
        <mxCell id="ae14Qy0RO_niLCeJF8Mt-26" value="&lt;b style=&quot;border-color: var(--border-color); font-size: 25px;&quot;&gt;C4&lt;/b&gt;" style="rounded=1;whiteSpace=wrap;html=1;fillColor=#f8cecc;strokeColor=#b85450;shadow=0;" parent="1" vertex="1">
          <mxGeometry x="560" y="1280" width="120" height="60" as="geometry" />
        </mxCell>
        <mxCell id="ae14Qy0RO_niLCeJF8Mt-27" value="&lt;b&gt;&lt;font style=&quot;font-size: 30px;&quot;&gt;Model C&lt;/font&gt;&lt;/b&gt;" style="text;strokeColor=none;align=center;fillColor=none;html=1;verticalAlign=middle;whiteSpace=wrap;rounded=0;shadow=0;" parent="1" vertex="1">
          <mxGeometry x="-50" y="1295" width="120" height="30" as="geometry" />
        </mxCell>
        <mxCell id="ae14Qy0RO_niLCeJF8Mt-22" value="" style="rounded=1;whiteSpace=wrap;html=1;fillColor=none;dashed=1;dashPattern=8 8;shadow=0;" parent="1" vertex="1">
          <mxGeometry x="110" y="1265" width="590" height="90" as="geometry" />
        </mxCell>
        <mxCell id="cGVDCbrGFql1K9c7wIjx-1" value="" style="rounded=1;whiteSpace=wrap;html=1;fillColor=none;dashed=1;dashPattern=8 8;shadow=0;" vertex="1" parent="1">
          <mxGeometry x="110" y="180" width="590" height="90" as="geometry" />
        </mxCell>
        <mxCell id="cGVDCbrGFql1K9c7wIjx-2" value="&lt;font size=&quot;1&quot; style=&quot;&quot;&gt;&lt;b style=&quot;font-size: 25px;&quot;&gt;D1&lt;/b&gt;&lt;/font&gt;" style="rounded=1;whiteSpace=wrap;html=1;fillColor=#d5e8d4;strokeColor=#82b366;shadow=0;" vertex="1" parent="1">
          <mxGeometry x="130" y="195" width="120" height="60" as="geometry" />
        </mxCell>
        <mxCell id="cGVDCbrGFql1K9c7wIjx-3" value="&lt;b style=&quot;border-color: var(--border-color); font-size: 25px;&quot;&gt;D2&lt;/b&gt;" style="rounded=1;whiteSpace=wrap;html=1;fillColor=#d5e8d4;strokeColor=#82b366;shadow=0;" vertex="1" parent="1">
          <mxGeometry x="270" y="195" width="120" height="60" as="geometry" />
        </mxCell>
        <mxCell id="cGVDCbrGFql1K9c7wIjx-4" value="&lt;b style=&quot;border-color: var(--border-color); font-size: 25px;&quot;&gt;D3&lt;/b&gt;" style="rounded=1;whiteSpace=wrap;html=1;fillColor=#d5e8d4;strokeColor=#82b366;shadow=0;" vertex="1" parent="1">
          <mxGeometry x="413.5" y="195" width="120" height="60" as="geometry" />
        </mxCell>
        <mxCell id="cGVDCbrGFql1K9c7wIjx-5" value="&lt;b style=&quot;border-color: var(--border-color); font-size: 25px;&quot;&gt;D4&lt;/b&gt;" style="rounded=1;whiteSpace=wrap;html=1;fillColor=#d5e8d4;strokeColor=#82b366;shadow=0;" vertex="1" parent="1">
          <mxGeometry x="560" y="195" width="120" height="60" as="geometry" />
        </mxCell>
        <mxCell id="cGVDCbrGFql1K9c7wIjx-6" value="&lt;b&gt;&lt;font style=&quot;font-size: 30px;&quot;&gt;Model D&lt;/font&gt;&lt;/b&gt;" style="text;strokeColor=none;align=center;fillColor=none;html=1;verticalAlign=middle;whiteSpace=wrap;rounded=0;shadow=0;" vertex="1" parent="1">
          <mxGeometry x="-50" y="205" width="120" height="30" as="geometry" />
        </mxCell>
      </root>
    </mxGraphModel>
  </diagram>
</mxfile>
